<svg preserveAspectRatio="none" width="100%" height="100%" overflow="visible" style="display: block;" viewBox="0 0 14.5991 7.84409" fill="none" xmlns="http://www.w3.org/2000/svg">
<path id="Vector" d="M0.092959 6.96678L3.61786 1.37493C3.75046 1.1644 3.92527 0.983649 4.13125 0.844086C4.33723 0.704523 4.56991 0.609181 4.8146 0.564077C5.05928 0.518974 5.31066 0.525089 5.55287 0.582038C5.79507 0.638986 6.02284 0.74553 6.22179 0.894944L9.02671 2.99789C9.15193 3.09164 9.30427 3.14205 9.4607 3.14151C9.61712 3.14097 9.76912 3.0895 9.89368 2.99489L13.6796 0.120965C14.1836 -0.263024 14.8435 0.342959 14.5076 0.879945L10.9797 6.46879C10.8471 6.67932 10.6722 6.86007 10.4663 6.99964C10.2603 7.1392 10.0276 7.23454 9.78292 7.27964C9.53823 7.32475 9.28685 7.31863 9.04465 7.26168C8.80244 7.20474 8.57468 7.09819 8.37573 6.94878L5.57081 4.84584C5.44559 4.75209 5.29324 4.70167 5.13682 4.70221C4.98039 4.70275 4.8284 4.75422 4.70383 4.84884L0.917936 7.72276C0.41395 8.10675 -0.246032 7.50376 0.092959 6.96678Z" fill="var(--fill-0, white)"/>
</svg>
