<svg preserveAspectRatio="none" width="100%" height="100%" overflow="visible" style="display: block;" viewBox="0 0 7.60943 6.64391" fill="none" xmlns="http://www.w3.org/2000/svg">
<path id="Vector" d="M4.9994 2.84455C4.86026 3.08261 4.55327 3.19686 4.31265 3.09761C4.07586 2.99996 4.00151 2.73446 4.13618 2.50086C4.27468 2.26854 4.57018 2.15525 4.80601 2.24876C5.04599 2.33651 5.13215 2.60553 4.9994 2.84455ZM3.73345 4.46983C3.34923 5.08285 2.52622 5.35155 1.90617 5.06849C1.29538 4.79054 1.11508 4.07795 1.49993 3.48024C1.87937 2.88508 2.67461 2.61957 3.28987 2.87742C3.91216 3.14293 4.11129 3.85041 3.73345 4.46983ZM5.17746 0.130442C3.28668 -0.36164 1.14954 0.580719 0.328448 2.24684C-0.507964 3.94583 0.301004 5.83182 2.21061 6.44868C4.18947 7.0866 6.52159 6.10914 7.33248 4.27484C8.13251 2.48203 7.13398 0.636246 5.17746 0.130442Z" fill="var(--fill-0, black)"/>
</svg>
