<svg preserveAspectRatio="none" width="100%" height="100%" overflow="visible" style="display: block;" viewBox="0 0 22 23.1975" fill="none" xmlns="http://www.w3.org/2000/svg">
<path id="Vector" d="M19.5167 2.26264C18.9402 1.73073 16.6107 0.0396257 11.4218 0.0166506C11.4218 0.0166506 5.30276 -0.352343 2.31983 2.38378C0.659358 4.0446 0.0752334 6.47474 0.0136183 9.48761C-0.0479967 12.5005 -0.127714 18.1468 5.31495 19.6778H5.32017L5.31669 22.0139C5.31669 22.0139 5.28188 22.9597 5.90464 23.1526C6.65795 23.3865 7.10004 22.6677 7.81923 21.8928C8.21399 21.4674 8.75912 20.8425 9.16989 20.3649C12.8922 20.6782 15.755 19.9622 16.0802 19.8563C16.8317 19.6127 21.0846 19.0675 21.7763 13.4219C22.4902 7.60261 21.4309 3.92172 19.5167 2.26264ZM20.1475 13.0045C19.5637 17.7186 16.1143 18.0148 15.4783 18.2188C15.2078 18.3059 12.6934 18.9314 9.53157 18.725C9.53157 18.725 7.17558 21.5673 6.43968 22.3063C6.32481 22.4219 6.18974 22.4685 6.09958 22.4456C5.97287 22.4146 5.93806 22.2645 5.93945 22.0452C5.94154 21.7319 5.95964 18.1631 5.95964 18.1631C1.35557 16.8849 1.62396 12.0793 1.67618 9.5628C1.7284 7.04633 2.20113 4.98484 3.60539 3.59833C6.12847 1.313 11.3261 1.6545 11.3261 1.6545C15.7154 1.67364 17.8186 2.99541 18.3063 3.4382C19.9257 4.82471 20.7507 8.14252 20.1475 13.0031V13.0045Z" fill="var(--fill-0, #7360F2)"/>
</svg>
