<svg preserveAspectRatio="none" width="100%" height="100%" overflow="visible" style="display: block;" viewBox="0 0 46 46" fill="none" xmlns="http://www.w3.org/2000/svg">
<g id="space_dashboard">
<mask id="mask0_238_90" style="mask-type:alpha" maskUnits="userSpaceOnUse" x="0" y="0" width="46" height="46">
<rect id="Bounding box" width="46" height="46" fill="var(--fill-0, #D9D9D9)"/>
</mask>
<g mask="url(#mask0_238_90)">
<path id="space_dashboard_2" d="M9.58333 40.25C8.52917 40.25 7.62674 39.8747 6.87604 39.124C6.12535 38.3733 5.75 37.4708 5.75 36.4167V9.58333C5.75 8.52917 6.12535 7.62674 6.87604 6.87604C7.62674 6.12535 8.52917 5.75 9.58333 5.75H36.4167C37.4708 5.75 38.3733 6.12535 39.124 6.87604C39.8747 7.62674 40.25 8.52917 40.25 9.58333V36.4167C40.25 37.4708 39.8747 38.3733 39.124 39.124C38.3733 39.8747 37.4708 40.25 36.4167 40.25H9.58333ZM9.58333 36.4167H21.0833V9.58333H9.58333V36.4167ZM24.9167 36.4167H36.4167V23H24.9167V36.4167ZM24.9167 19.1667H36.4167V9.58333H24.9167V19.1667Z" fill="var(--fill-0, #0D0D0E)"/>
</g>
</g>
</svg>
