<svg preserveAspectRatio="none" width="100%" height="100%" overflow="visible" style="display: block;" viewBox="0 0 12.1492 8.22204" fill="none" xmlns="http://www.w3.org/2000/svg">
<path id="Vector" d="M4.30423 0V2.21741H2.49926C2.49926 2.21741 0.695302 2.36719 0.0638317 4.41394C-0.156409 5.78047 0.258182 6.58524 0.330475 6.75723C0.40344 6.92889 0.986154 7.92854 2.45051 8.22204H5.83751V0.0242335L4.30423 0ZM4.27699 6.87638H2.91251C2.91251 6.87638 1.96194 6.82691 1.67243 5.73133C1.52314 5.24598 1.69462 4.68523 1.76994 4.46477C1.83887 4.24397 2.15797 3.73371 2.81567 3.53715H4.27666L4.27699 6.87638ZM6.6677 2.41633V6.73266C6.6677 6.73266 6.73831 7.8067 8.25142 8.19815H12.1492V2.41565H10.4669V6.75656H8.86171C8.86171 6.75656 8.3486 6.68184 8.25209 6.26919V2.39075L6.6677 2.41633Z" fill="var(--fill-0, white)"/>
</svg>
