<svg preserveAspectRatio="none" width="100%" height="100%" overflow="visible" style="display: block;" viewBox="0 0 32 32" fill="none" xmlns="http://www.w3.org/2000/svg">
<g id="add_diamond">
<mask id="mask0_238_172" style="mask-type:alpha" maskUnits="userSpaceOnUse" x="0" y="0" width="32" height="32">
<rect id="Bounding box" width="32" height="32" fill="var(--fill-0, #D9D9D9)"/>
</mask>
<g mask="url(#mask0_238_172)">
<path id="add_diamond_2" d="M14.6667 21.3333H17.3333V17.3333H21.3333V14.6667H17.3333V10.6667H14.6667V14.6667H10.6667V17.3333H14.6667V21.3333ZM16 29.3333C15.6444 29.3333 15.3056 29.2722 14.9833 29.15C14.6611 29.0278 14.3778 28.8333 14.1333 28.5667L3.5 17.9C3.25556 17.6333 3.05556 17.3389 2.9 17.0167C2.74444 16.6944 2.66667 16.3556 2.66667 16C2.66667 15.6444 2.74444 15.3056 2.9 14.9833C3.05556 14.6611 3.25556 14.3778 3.5 14.1333L14.1333 3.46667C14.4 3.2 14.6889 3 15 2.86667C15.3111 2.73333 15.6444 2.66667 16 2.66667C16.3556 2.66667 16.7 2.73333 17.0333 2.86667C17.3667 3 17.6556 3.2 17.9 3.46667L28.5 14.1333C28.7444 14.4 28.9444 14.6889 29.1 15C29.2556 15.3111 29.3333 15.6444 29.3333 16C29.3333 16.3556 29.2611 16.6944 29.1167 17.0167C28.9722 17.3389 28.7667 17.6333 28.5 17.9L17.9 28.5667C17.6556 28.8111 17.3667 29 17.0333 29.1333C16.7 29.2667 16.3556 29.3333 16 29.3333ZM16 26.6667L26.6333 16L16 5.33333L5.36667 16L16 26.6667Z" fill="var(--fill-0, #0D0D0E)" fill-opacity="0.5"/>
</g>
</g>
</svg>
