<svg preserveAspectRatio="none" width="100%" height="100%" overflow="visible" style="display: block;" viewBox="0 0 12.7889 16.2826" fill="none" xmlns="http://www.w3.org/2000/svg">
<path id="Vector" fill-rule="evenodd" clip-rule="evenodd" d="M12.1892 0.00292478C12.1314 0.00824334 11.6175 0.0993236 11.5557 0.111955L4.44209 1.5473L4.43943 1.54797C4.25395 1.58719 4.10835 1.65301 3.996 1.74741C3.86038 1.8611 3.78525 2.02198 3.75667 2.20946C3.75068 2.24935 3.74071 2.33046 3.74071 2.45013C3.74071 2.45013 3.74071 9.71794 3.74071 11.3534C3.74071 11.5615 3.72409 11.7636 3.58315 11.9358C3.44221 12.108 3.26802 12.1598 3.06392 12.201C2.90902 12.2323 2.75412 12.2635 2.59921 12.2948C2.01151 12.4131 1.62924 12.4936 1.28287 12.6279C0.95179 12.7562 0.703812 12.9197 0.50636 13.1271C0.114781 13.5373 -0.0441106 14.0938 0.0104047 14.615C0.0569421 15.0598 0.257053 15.4853 0.600765 15.7997C0.832787 16.0125 1.12265 16.174 1.46437 16.2425C1.81872 16.3136 2.19633 16.289 2.74813 16.1773C3.04198 16.1182 3.31722 16.0257 3.57916 15.8708C3.83844 15.7179 4.06049 15.5138 4.23401 15.2652C4.40819 15.0159 4.52054 14.7387 4.58237 14.4441C4.64619 14.1403 4.66149 13.8657 4.66149 13.5626V5.84071C4.66149 5.42719 4.77849 5.31816 5.11223 5.23705C5.11223 5.23705 11.0251 4.04437 11.301 3.99052C11.686 3.91672 11.8675 4.02641 11.8675 4.42996V9.70132C11.8675 9.91007 11.8655 10.1215 11.7232 10.2943C11.5823 10.4665 11.4081 10.5184 11.204 10.5596C11.0491 10.5908 10.8942 10.6221 10.7393 10.6533C10.1516 10.7717 9.7693 10.8521 9.42293 10.9864C9.09185 11.1147 8.84387 11.2783 8.64642 11.4857C8.25484 11.8959 8.08198 12.4523 8.1365 12.9736C8.18304 13.4183 8.39711 13.8438 8.74082 14.1583C8.97284 14.371 9.2627 14.5279 9.60442 14.5971C9.95877 14.6682 10.3364 14.6429 10.8882 14.5319C11.182 14.4727 11.4573 14.3843 11.7192 14.2294C11.9785 14.0765 12.2005 13.8724 12.3741 13.6238C12.5482 13.3744 12.6606 13.0972 12.7224 12.8027C12.7862 12.4989 12.7889 12.2243 12.7889 11.9212V0.631844C12.7902 0.222315 12.5742 -0.0303162 12.1892 0.00292478Z" fill="var(--fill-0, white)"/>
</svg>
