<svg preserveAspectRatio="none" width="100%" height="100%" overflow="visible" style="display: block;" viewBox="0 0 64.9999 57.125" fill="none" xmlns="http://www.w3.org/2000/svg">
<g id="Group">
<path id="Vector" d="M40.3774 1C49.0761 1 56.1266 8.05127 56.1258 16.7508C56.1266 25.4479 49.0745 32.5 40.3758 32.5H26.7111L19.2692 39.9442C19.0007 40.2104 18.6321 40.375 18.225 40.375C17.4099 40.375 16.7492 39.7135 16.7492 38.9V32.5C8.05127 32.5 1 25.4479 1 16.7508C1 8.05285 8.05127 1.00157 16.7492 1.00157L40.3774 1Z" stroke="var(--stroke-0, black)" stroke-width="2" stroke-miterlimit="10" stroke-linecap="round" stroke-linejoin="round"/>
<path id="Vector_2" d="M14.7813 10.8446H26.5938" stroke="var(--stroke-0, black)" stroke-width="2" stroke-miterlimit="10" stroke-linecap="round" stroke-linejoin="round"/>
<path id="Vector_3" d="M14.7813 16.7507H42.3438" stroke="var(--stroke-0, black)" stroke-width="2" stroke-miterlimit="10" stroke-linecap="round" stroke-linejoin="round"/>
<path id="Vector_4" d="M14.7813 22.6563H34.4688" stroke="var(--stroke-0, black)" stroke-width="2" stroke-miterlimit="10" stroke-linecap="round" stroke-linejoin="round"/>
<path id="Vector_5" d="M53.9152 24.766C51.1731 29.3902 46.1418 32.5 40.3757 32.5H26.711L19.2692 39.9443C19.0006 40.2105 18.6321 40.375 18.2249 40.375C17.4099 40.375 16.7492 39.7135 16.7492 38.9001V32.5C14.4016 32.5 12.1817 31.974 10.1814 31.051C9.3514 32.6678 8.87338 34.4932 8.87338 36.436C8.87338 42.9588 14.1638 48.2485 20.6859 48.2485H42.2248L49.6674 55.6895C49.936 55.9589 50.3045 56.125 50.7117 56.125C51.5267 56.125 52.1874 55.462 52.1874 54.6453V48.2485C58.7111 48.2485 63.9999 42.9604 63.9999 36.436C63.9999 30.5037 59.6191 25.6047 53.9152 24.766Z" stroke="var(--stroke-0, black)" stroke-width="2" stroke-miterlimit="10" stroke-linecap="round" stroke-linejoin="round"/>
</g>
</svg>
