<svg preserveAspectRatio="none" width="100%" height="100%" overflow="visible" style="display: block;" viewBox="0 0 2.33309 2.39963" fill="none" xmlns="http://www.w3.org/2000/svg">
<path id="Vector" d="M2.03962 2.39963C1.96441 2.39963 1.89208 2.37072 1.83759 2.31889C1.78309 2.26705 1.75061 2.19625 1.74686 2.12114C1.69708 1.1252 1.22783 0.637505 0.270189 0.585986C0.193889 0.579917 0.122979 0.544278 0.0725836 0.486669C0.0221881 0.429059 -0.00370413 0.35404 0.000428413 0.277611C0.00456096 0.201181 0.0383913 0.129391 0.0947047 0.0775515C0.151018 0.025712 0.225357 -0.00207339 0.301866 0.000120727C1.5655 0.0697422 2.26798 0.791368 2.33273 2.0919C2.33465 2.13039 2.32897 2.16888 2.31601 2.20518C2.30306 2.24148 2.28308 2.27487 2.25722 2.30344C2.23136 2.33202 2.20012 2.35522 2.1653 2.37172C2.13047 2.38823 2.09273 2.39771 2.05424 2.39963H2.03962Z" fill="var(--fill-0, #7360F2)"/>
</svg>
