<svg preserveAspectRatio="none" width="100%" height="100%" overflow="visible" style="display: block;" viewBox="0 0 12 14.2496" fill="none" xmlns="http://www.w3.org/2000/svg">
<path id="Vector" d="M12 1.125V8.25C12.0007 9.57041 11.5656 10.8541 10.7622 11.902C9.95871 12.9498 8.83186 13.7031 7.55649 14.0451C6.28112 14.387 4.92855 14.2984 3.70868 13.793C2.48882 13.2876 1.46988 12.3937 0.81 11.25C0.665678 11.0101 0.540297 10.7594 0.435001 10.5C0.336835 10.2554 0.254171 10.0049 0.187501 9.75C0.0638542 9.25956 0.000883276 8.75579 1.00276e-06 8.25V1.125C-0.000196449 0.977208 0.0287678 0.830829 0.0852344 0.694249C0.141701 0.557669 0.22456 0.433571 0.329066 0.329066C0.433571 0.224561 0.557668 0.141701 0.694249 0.0852345C0.830829 0.0287678 0.977208 -0.000196449 1.125 1.00276e-06H10.875C11.0228 -0.000196449 11.1692 0.0287678 11.3057 0.0852345C11.4423 0.141701 11.5664 0.224561 11.6709 0.329066C11.7754 0.433571 11.8583 0.557669 11.9148 0.694249C11.9712 0.830829 12.0002 0.977208 12 1.125V1.125Z" fill="var(--fill-0, #7B83EB)"/>
</svg>
