<svg preserveAspectRatio="none" width="100%" height="100%" overflow="visible" style="display: block;" viewBox="0 0 582 274.331" fill="none" xmlns="http://www.w3.org/2000/svg">
<g id="Group 2">
<path id="Subtract" fill-rule="evenodd" clip-rule="evenodd" d="M230.394 0C209.954 0 193.383 16.5705 193.383 37.0111L173.952 37.0111C133.071 37.0111 99.9301 70.152 99.9301 111.033L28.0286 111.033C19.192 111.033 12.0286 118.197 12.0286 127.033V180.001C5.11317 181.767 0 188.038 0 195.504V198.664C0 207.501 7.16344 214.664 16 214.664H28.0062L28.0285 214.664L34.2353 214.664L285.911 214.664L285.911 111.033L285.911 37.0111V15.2686C285.911 6.83599 279.075 0 270.642 0H230.394Z" fill="var(--fill-0, #616161)"/>
<circle id="Ellipse 2" cx="78.6487" cy="223.917" r="47.4134" fill="var(--fill-0, #616161)" stroke="var(--stroke-0, #FCFCFC)" stroke-width="6"/>
<path id="Rectangle 13" d="M285.911 184.13H566.733C575.165 184.13 582 190.966 582 199.397C582 207.829 575.165 214.665 566.733 214.665H285.911V184.13Z" fill="var(--fill-0, #616161)"/>
<circle id="Ellipse 3" cx="395.094" cy="223.917" r="47.4134" fill="var(--fill-0, #616161)" stroke="var(--stroke-0, #FCFCFC)" stroke-width="6"/>
<circle id="Ellipse 4" cx="512.604" cy="223.917" r="47.4134" fill="var(--fill-0, #616161)" stroke="var(--stroke-0, #FCFCFC)" stroke-width="6"/>
</g>
</svg>
