<svg preserveAspectRatio="none" width="100%" height="100%" overflow="visible" style="display: block;" viewBox="0 0 16.8967 16.4164" fill="none" xmlns="http://www.w3.org/2000/svg">
<path id="Vector" d="M8.41671 1.2635e-05C3.82471 0.0160126 0.0647143 3.74401 0.000714314 8.33601C-0.0472857 12.056 2.32871 15.24 5.64871 16.408C5.72871 16.44 5.80871 16.368 5.80071 16.288C5.76071 16 5.71271 15.712 5.68071 15.424C5.66471 15.32 5.60071 15.24 5.51271 15.192C2.88871 14.048 1.05671 11.416 1.08871 8.36801C1.12871 4.36801 4.39271 1.11201 8.38471 1.08001C12.4727 1.04801 15.8087 4.36001 15.8087 8.44001C15.8087 11.456 13.9847 14.048 11.3847 15.192C11.2887 15.232 11.2247 15.32 11.2167 15.424C11.1767 15.712 11.1367 16 11.0967 16.288C11.0807 16.376 11.1687 16.44 11.2487 16.408C14.5367 15.256 16.8967 12.12 16.8967 8.44001C16.8807 3.78401 13.0807 -0.00798736 8.41671 1.2635e-05Z" fill="var(--fill-0, white)"/>
</svg>
