<svg preserveAspectRatio="none" width="100%" height="100%" overflow="visible" style="display: block;" viewBox="0 0 24 22.4625" fill="none" xmlns="http://www.w3.org/2000/svg">
<path id="Vector" fill-rule="evenodd" clip-rule="evenodd" d="M12 0C18.6274 0 24 4.30214 24 9.60909C24 11.4628 23.344 13.1935 22.2085 14.6614C22.1523 14.7449 22.0789 14.8372 21.9863 14.9392L21.9793 14.9469C21.5914 15.411 21.1546 15.8467 20.6743 16.2488C17.3558 19.3161 11.8937 22.9679 11.1728 22.4045C10.5461 21.9148 12.205 19.5194 10.2911 19.1208C10.1576 19.1054 10.0244 19.089 9.8924 19.0703L9.88989 19.0701V19.0699C4.26872 18.2714 4.18602e-09 14.3395 4.18602e-09 9.60909C-0.000173165 4.30214 5.3725 0 12 0V0Z" fill="var(--fill-0, #3ACE01)"/>
</svg>
