<svg preserveAspectRatio="none" width="100%" height="100%" overflow="visible" style="display: block;" viewBox="0 0 226 201" fill="none" xmlns="http://www.w3.org/2000/svg">
<g id="Vector">
<path d="M103.834 185.042C67.1859 180.503 39.5501 149.313 39.5501 112.491C39.5501 100.696 42.4375 89.002 47.8936 78.6255C54.6139 71.5663 57.2166 61.4509 54.6846 52.0425C52.0894 42.4017 44.4517 34.7993 34.753 32.2019C33.2275 31.7928 31.5981 32.2278 30.4818 33.3409C23.3875 40.4173 20.5919 50.8025 23.1871 60.4446C25.3205 68.3695 30.8623 74.9142 38.1538 78.4366C36.4927 82.057 35.1071 85.8013 33.9938 89.6273C33.1802 88.534 32.2846 87.4921 31.3037 86.5157C24.2134 79.4582 13.7811 76.675 4.07665 79.253C2.54974 79.6586 1.35699 80.8459 0.949547 82.3659C-1.63989 92.0256 1.15614 102.411 8.24553 109.469C13.5873 114.787 20.8254 117.677 28.2212 117.677C29.1067 117.677 29.9949 117.634 30.8821 117.551C31.1695 122.204 31.8467 126.763 32.8902 131.19C31.6352 130.648 30.3348 130.19 28.9937 129.833C19.3096 127.248 8.87589 130.031 1.7662 137.094C0.64805 138.205 0.211474 139.827 0.622005 141.346C3.23131 151.001 10.869 158.603 20.554 161.186C22.9456 161.824 25.3815 162.135 27.8027 162.135C33.5665 162.134 39.2371 160.366 43.9966 157.063C46.6757 161.168 49.7154 165.024 53.0742 168.584C43.6258 169.093 34.949 174.351 30.1719 182.569C29.3804 183.93 29.3804 185.609 30.1719 186.971C35.2024 195.624 44.5564 201 54.5835 201C64.5717 201 73.8908 195.665 78.9355 187.07C86.3273 190.421 94.322 192.722 102.743 193.765C102.928 193.787 103.112 193.798 103.294 193.798C105.488 193.798 107.391 192.17 107.669 189.946C107.97 187.537 106.253 185.342 103.834 185.042ZM22.8393 152.697C17.0521 151.153 12.3279 146.997 10.017 141.573C14.7425 138.025 20.919 136.776 26.7088 138.321C32.496 139.865 37.2202 144.021 39.5311 149.445C34.8051 152.992 28.626 154.24 22.8393 152.697ZM31.7147 58.1697C30.1639 52.4085 31.4176 46.2584 34.9813 41.554C40.4307 43.8544 44.6062 48.557 46.1565 54.3174C47.7073 60.0786 46.4532 66.2287 42.8895 70.9331C37.4405 68.6323 33.2654 63.9305 31.7147 58.1697ZM14.4887 103.254C10.2518 99.0365 8.24862 93.0864 8.97168 87.2381C14.8476 86.5193 20.8241 88.5125 25.0605 92.73C29.2974 96.9471 31.3006 102.898 30.5775 108.745C24.7012 109.463 18.7256 107.471 14.4887 103.254ZM54.5839 192.211C48.5924 192.211 42.9491 189.413 39.3064 184.769C42.9491 180.125 48.5924 177.327 54.5839 177.327C60.5755 177.327 66.2187 180.125 69.8614 184.769C66.2192 189.413 60.5755 192.211 54.5839 192.211Z" fill="var(--fill-0, #FCFCFC)"/>
<path d="M197.006 129.832C195.665 130.19 194.365 130.647 193.11 131.189C194.153 126.762 194.83 122.203 195.118 117.55C196.005 117.634 196.893 117.676 197.779 117.676C205.173 117.676 212.413 114.785 217.754 109.468C224.844 102.41 227.64 92.0252 225.05 82.365C224.643 80.845 223.45 79.6577 221.923 79.2521C212.22 76.6758 201.786 79.4578 194.696 86.5149C193.715 87.4912 192.82 88.5335 192.006 89.6264C190.893 85.8004 189.507 82.0565 187.846 78.4357C195.137 74.9133 200.679 68.3691 202.813 60.4433C205.408 50.802 202.612 40.4168 195.518 33.34C194.402 32.2269 192.774 31.791 191.247 32.201C181.548 34.7984 173.91 42.4008 171.315 52.0416C168.783 61.4496 171.386 71.5654 178.106 78.6247C183.563 89.0011 186.45 100.695 186.45 112.49C186.45 149.312 158.814 180.502 122.166 185.041C119.747 185.341 118.03 187.536 118.331 189.944C118.609 192.169 120.51 193.797 122.706 193.797C122.888 193.797 123.071 193.786 123.256 193.763C131.677 192.72 139.672 190.419 147.064 187.068C152.108 195.663 161.427 200.998 171.416 200.998C181.443 200.998 190.796 195.623 195.827 186.969C196.619 185.607 196.619 183.929 195.827 182.567C191.05 174.35 182.374 169.092 172.925 168.582C176.284 165.022 179.324 161.167 182.002 157.062C186.762 160.364 192.432 162.133 198.197 162.133C200.617 162.133 203.054 161.822 205.445 161.184C215.13 158.601 222.768 150.999 225.377 141.344C225.788 139.825 225.351 138.204 224.233 137.092C217.124 130.031 206.692 127.247 197.006 129.832ZM200.939 92.7296C205.176 88.5116 211.151 86.5179 217.028 87.2377C217.751 93.0864 215.748 99.0365 211.511 103.253C207.275 107.471 201.297 109.464 195.422 108.745C194.699 102.897 196.702 96.9467 200.939 92.7296ZM179.843 54.3169C181.394 48.5566 185.569 43.8539 191.018 41.5536C194.582 46.258 195.836 52.4081 194.285 58.1693C192.734 63.9305 188.559 68.6327 183.11 70.9331C179.547 66.2287 178.292 60.0786 179.843 54.3169ZM186.694 184.769C183.051 189.413 177.408 192.211 171.416 192.211C165.425 192.211 159.781 189.413 156.139 184.769C159.781 180.125 165.425 177.327 171.416 177.327C177.408 177.327 183.051 180.125 186.694 184.769ZM203.16 152.697C197.373 154.24 191.195 152.992 186.469 149.445C188.78 144.02 193.504 139.864 199.291 138.321C205.08 136.778 211.257 138.026 215.983 141.573C213.672 146.997 208.948 151.153 203.16 152.697Z" fill="var(--fill-0, #FCFCFC)"/>
<path d="M141.378 154.685C144.532 152.404 145.786 148.547 144.574 144.858L137.64 123.774L155.741 110.743C158.896 108.471 160.161 104.62 158.961 100.932C157.762 97.2437 154.471 94.8612 150.577 94.8612H128.228L121.386 73.7893C120.187 70.0991 116.896 67.7144 113 67.7144C109.104 67.7144 105.812 70.0991 104.614 73.7889L97.7714 94.8612H75.423C71.5292 94.8612 68.2378 97.2441 67.0385 100.932C65.8391 104.62 67.1029 108.471 70.2587 110.742L88.3596 123.774L81.426 144.859C80.2134 148.547 81.468 152.404 84.6216 154.685C86.1957 155.823 87.999 156.392 89.8018 156.392C91.6112 156.392 93.4202 155.819 94.9974 154.673L113 141.593L131.002 154.673C134.151 156.962 138.224 156.966 141.378 154.685ZM113 131.76C112.087 131.76 111.172 132.041 110.397 132.605L89.8313 147.547L97.752 123.46C98.3492 121.644 97.699 119.652 96.1434 118.532L75.4707 103.65H100.983C102.898 103.65 104.595 102.42 105.184 100.607L112.999 76.5383L120.815 100.607C121.404 102.42 123.101 103.65 125.016 103.65H150.528L129.856 118.532C128.3 119.652 127.65 121.644 128.247 123.46L136.168 147.547L115.602 132.605C114.827 132.041 113.914 131.76 113 131.76Z" fill="var(--fill-0, #FCFCFC)"/>
<path d="M113 8.78836C114.161 8.78836 115.3 8.31819 116.12 7.50043C116.941 6.68355 117.414 5.54985 117.414 4.39418C117.414 3.23851 116.942 2.10481 116.12 1.2875C115.3 0.470177 114.161 0 113 0C111.839 0 110.7 0.469738 109.879 1.2875C109.058 2.10525 108.586 3.23851 108.586 4.39418C108.586 5.54985 109.057 6.67916 109.879 7.50043C110.7 8.31819 111.839 8.78836 113 8.78836Z" fill="var(--fill-0, #FCFCFC)"/>
<path d="M78.4115 49.0518C79.1606 50.6504 80.7529 51.5895 82.4153 51.5895C83.0395 51.5895 83.6747 51.4568 84.2781 51.1773C86.4875 50.1517 87.4436 47.5371 86.4133 45.3374L74.8911 20.7405C73.8608 18.5421 71.2356 17.5904 69.0245 18.6151C66.8151 19.6407 65.859 22.2552 66.8893 24.4549L78.4115 49.0518Z" fill="var(--fill-0, #FCFCFC)"/>
<path d="M112.994 50.3129H113C115.436 50.3129 117.411 48.3492 117.414 45.9245L117.442 24.201C117.445 21.7745 115.471 19.8041 113.033 19.8011H113.028C110.592 19.8011 108.616 21.7648 108.613 24.1895L108.586 45.9131C108.582 48.34 110.556 50.3099 112.994 50.3129Z" fill="var(--fill-0, #FCFCFC)"/>
<path d="M141.722 51.1773C142.325 51.4572 142.96 51.5895 143.585 51.5895C145.248 51.5895 146.84 50.65 147.589 49.0518L159.111 24.4549C160.141 22.2552 159.185 19.6407 156.976 18.6151C154.765 17.5908 152.14 18.5417 151.109 20.7405L139.587 45.3374C138.557 47.5371 139.513 50.1517 141.722 51.1773Z" fill="var(--fill-0, #FCFCFC)"/>
</g>
</svg>
