<svg preserveAspectRatio="none" width="100%" height="100%" overflow="visible" style="display: block;" viewBox="0 0 24 19.2" fill="none" xmlns="http://www.w3.org/2000/svg">
<path id="Vector" fill-rule="evenodd" clip-rule="evenodd" d="M4.58413e-05 6.24C4.58116 6.23998 7.44139 4.27322 9.95027 2.54803C11.9103 1.20031 13.6558 0 15.84 0C19.0909 0 21.9294 2.29858 23.4345 3.51739C23.6468 3.68926 23.8325 3.83966 23.9892 3.95911C24 4.79263 24 5.70936 24 6.72014V7.68014C24 13.1107 24 15.826 22.3129 17.5131C20.7005 19.1255 18.149 19.1968 13.1854 19.2H10.8146C5.85103 19.1968 3.29944 19.1255 1.68706 17.5131C-6.86646e-07 15.826 -4.79488e-07 13.1107 5.11833e-10 7.68014L2.43699e-07 6.72014C2.43699e-07 6.55769 2.41252e-07 6.39766 4.58413e-05 6.24Z" fill="var(--fill-0, #F45FFF)"/>
</svg>
