<svg preserveAspectRatio="none" width="100%" height="100%" overflow="visible" style="display: block;" viewBox="0 0 46 46" fill="none" xmlns="http://www.w3.org/2000/svg">
<g id="list_alt">
<mask id="mask0_238_176" style="mask-type:alpha" maskUnits="userSpaceOnUse" x="0" y="0" width="46" height="46">
<rect id="Bounding box" width="46" height="46" fill="var(--fill-0, #D9D9D9)"/>
</mask>
<g mask="url(#mask0_238_176)">
<path id="list_alt_2" d="M15.3333 32.5833C15.8764 32.5833 16.3316 32.3997 16.699 32.0323C17.0663 31.6649 17.25 31.2097 17.25 30.6667C17.25 30.1236 17.0663 29.6684 16.699 29.301C16.3316 28.9337 15.8764 28.75 15.3333 28.75C14.7903 28.75 14.3351 28.9337 13.9677 29.301C13.6003 29.6684 13.4167 30.1236 13.4167 30.6667C13.4167 31.2097 13.6003 31.6649 13.9677 32.0323C14.3351 32.3997 14.7903 32.5833 15.3333 32.5833ZM15.3333 24.9167C15.8764 24.9167 16.3316 24.733 16.699 24.3656C17.0663 23.9983 17.25 23.5431 17.25 23C17.25 22.4569 17.0663 22.0017 16.699 21.6344C16.3316 21.267 15.8764 21.0833 15.3333 21.0833C14.7903 21.0833 14.3351 21.267 13.9677 21.6344C13.6003 22.0017 13.4167 22.4569 13.4167 23C13.4167 23.5431 13.6003 23.9983 13.9677 24.3656C14.3351 24.733 14.7903 24.9167 15.3333 24.9167ZM15.3333 17.25C15.8764 17.25 16.3316 17.0663 16.699 16.699C17.0663 16.3316 17.25 15.8764 17.25 15.3333C17.25 14.7903 17.0663 14.3351 16.699 13.9677C16.3316 13.6003 15.8764 13.4167 15.3333 13.4167C14.7903 13.4167 14.3351 13.6003 13.9677 13.9677C13.6003 14.3351 13.4167 14.7903 13.4167 15.3333C13.4167 15.8764 13.6003 16.3316 13.9677 16.699C14.3351 17.0663 14.7903 17.25 15.3333 17.25ZM21.0833 32.5833H32.5833V28.75H21.0833V32.5833ZM21.0833 24.9167H32.5833V21.0833H21.0833V24.9167ZM21.0833 17.25H32.5833V13.4167H21.0833V17.25ZM9.58333 40.25C8.52917 40.25 7.62674 39.8747 6.87604 39.124C6.12535 38.3733 5.75 37.4708 5.75 36.4167V9.58333C5.75 8.52917 6.12535 7.62674 6.87604 6.87604C7.62674 6.12535 8.52917 5.75 9.58333 5.75H36.4167C37.4708 5.75 38.3733 6.12535 39.124 6.87604C39.8747 7.62674 40.25 8.52917 40.25 9.58333V36.4167C40.25 37.4708 39.8747 38.3733 39.124 39.124C38.3733 39.8747 37.4708 40.25 36.4167 40.25H9.58333ZM9.58333 36.4167H36.4167V9.58333H9.58333V36.4167Z" fill="var(--fill-0, #0D0D0E)"/>
</g>
</g>
</svg>
