<svg preserveAspectRatio="none" width="100%" height="100%" overflow="visible" style="display: block;" viewBox="0 0 22.0082 24" fill="none" xmlns="http://www.w3.org/2000/svg">
<path id="Vector" d="M3.33143 12.6474C5.93734 12.087 5.58193 8.96622 5.5056 8.28431C5.37715 7.23249 4.14212 5.39576 2.46593 5.54251C0.356325 5.73099 0.0483254 8.78144 0.0483254 8.78144C-0.237484 10.1941 0.730232 13.2095 3.33143 12.6474ZM8.17068 7.41592C9.60914 7.41592 10.7719 5.75657 10.7719 3.70678C10.7719 1.657 9.60914 0 8.17068 0C6.73155 0 5.56579 1.65666 5.56579 3.70678C5.56579 5.75657 6.73121 7.41592 8.17068 7.41592ZM14.3724 7.65995C16.2981 7.91238 17.5318 5.8562 17.7786 4.29816C18.0308 2.74214 16.7867 0.932334 15.4265 0.621668C14.0604 0.3073 12.3549 2.49643 12.2013 3.92455C12.014 5.67142 12.4487 7.41323 14.3724 7.65995V7.65995ZM21.9981 10.2776C21.9981 9.53236 21.3818 7.286 19.0862 7.286C16.7863 7.286 16.4827 9.4058 16.4827 10.9036C16.4827 12.3331 16.6017 14.327 19.4578 14.265C22.3108 14.2018 21.9981 11.0278 21.9981 10.2776V10.2776ZM19.0862 16.8194C19.0862 16.8194 16.1098 14.5145 14.3721 12.0224C12.0133 8.34792 8.66597 9.8447 7.54728 11.7104C6.43162 13.5811 4.69726 14.7625 4.44911 15.0762C4.19861 15.3835 0.85397 17.1926 1.59606 20.4962C2.33984 23.7971 4.9481 23.7345 4.9481 23.7345C4.9481 23.7345 6.87042 23.9229 9.09973 23.4235C11.3338 22.9257 13.2557 23.5456 13.2557 23.5456C13.2557 23.5456 18.4669 25.2949 19.8909 21.929C21.3166 18.5659 19.0866 16.8197 19.0866 16.8197" fill="var(--fill-0, #2319DC)"/>
</svg>
