<svg preserveAspectRatio="none" width="100%" height="100%" overflow="visible" style="display: block;" viewBox="0 0 23.8545 23.806" fill="none" xmlns="http://www.w3.org/2000/svg">
<path id="Vector" d="M4.82628 2.29576C6.59194 0.987427 8.67879 0.196525 10.8538 0V3.59906C9.44783 3.78133 8.10511 4.31962 6.95656 5.17069C5.51841 6.23634 4.46079 7.73598 3.93975 9.44842C3.41869 11.1609 3.46177 12.9954 4.06263 14.6814C4.66349 16.3676 5.79031 17.816 7.27691 18.8129C8.7635 19.8099 10.5311 20.3027 12.3191 20.2188C14.1071 20.1347 15.8207 19.4782 17.2073 18.3463C18.5938 17.2142 19.5798 15.6666 20.02 13.9317C20.327 12.7214 20.357 11.4648 20.1165 10.2533L23.1388 7.82357L23.1368 7.80398C23.9526 10.0482 24.0773 12.4897 23.4883 14.8115C22.8595 17.29 21.4509 19.5009 19.4701 21.1181C17.4893 22.7351 15.0413 23.6729 12.4871 23.7929C9.93282 23.9129 7.40762 23.2089 5.28391 21.7846C3.16021 20.3604 1.55045 18.2913 0.692087 15.8826C-0.166284 13.4739 -0.227825 10.8531 0.516539 8.40682C1.2609 5.96048 2.77176 3.81813 4.82628 2.29576Z" fill="var(--fill-0, #FCCA00)"/>
</svg>
