<svg preserveAspectRatio="none" width="100%" height="100%" overflow="visible" style="display: block;" viewBox="0 0 208 204" fill="none" xmlns="http://www.w3.org/2000/svg">
<g id="_&#195;&#144;&#194;&#160;&#195;&#144;&#194;&#181;&#195;&#144;&#194;&#182;&#195;&#144;&#194;&#184;&#195;&#144;&#194;&#188;_&#195;&#145;&#226;&#128;&#147;&#195;&#144;&#194;&#183;&#195;&#144;&#194;&#190;&#195;&#144;&#194;&#187;&#195;&#145;&#194;&#143;&#195;&#145;&#226;&#128;&#160;&#195;&#145;&#226;&#128;&#147;&#195;&#145;&#226;&#128;&#148;" clip-path="url(#clip0_238_180)">
<path id="Vector" d="M104 149.384C98.5813 149.384 93.3228 148.322 88.3709 146.226C83.589 144.204 79.2963 141.308 75.6106 137.622C71.9249 133.935 69.03 129.64 67.0078 124.859C64.9136 119.905 63.8509 114.646 63.8509 109.226C63.8509 103.806 64.9123 98.5463 67.0078 93.5933C69.03 88.8104 71.9249 84.5167 75.6106 80.8302C79.2963 77.1437 83.5903 74.2481 88.3709 72.2254C93.3228 70.1307 98.5801 69.0678 104 69.0678C109.42 69.0678 114.677 70.1295 119.629 72.2254C124.41 74.2481 128.704 77.1437 132.389 80.8302C136.075 84.5167 138.97 88.8116 140.992 93.5933C143.086 98.5463 144.149 103.805 144.149 109.226C144.149 114.647 143.088 119.905 140.992 124.859C138.97 129.64 136.075 133.935 132.389 137.622C128.704 141.308 124.41 144.204 119.629 146.226C114.677 148.321 109.419 149.384 104 149.384ZM104 74.9074C85.0812 74.9074 69.6892 90.3029 69.6892 109.226C69.6892 128.149 85.0812 143.544 104 143.544C122.919 143.544 138.311 128.149 138.311 109.226C138.311 90.3029 122.919 74.9074 104 74.9074Z" fill="var(--fill-0, #333333)"/>
<path id="Vector_2" d="M97.6689 126.618L81.7481 110.694L85.8757 106.564L97.6689 118.36L122.124 93.8987L126.252 98.0273L97.6689 126.618Z" fill="var(--fill-0, #333333)"/>
<path id="Vector_3" d="M166.471 198.149C166.006 198.149 165.54 198.039 165.112 197.814L103.999 165.677L42.8851 197.814C41.9019 198.332 40.7102 198.245 39.8114 197.592C38.9127 196.939 38.4621 195.831 38.6507 194.736L50.3223 126.67L0.881429 78.466C0.0856977 77.69 -0.201064 76.5303 0.142802 75.4736C0.486667 74.417 1.39909 73.6459 2.49896 73.4869L70.8251 63.5561L101.382 1.62783C101.874 0.630768 102.889 0 103.999 0C105.109 0 106.124 0.630768 106.616 1.62783L137.172 63.5561L205.499 73.4869C206.599 73.6471 207.512 74.417 207.855 75.4736C208.199 76.5303 207.912 77.6912 207.116 78.466L157.674 126.67L169.346 194.736C169.533 195.831 169.084 196.939 168.185 197.592C167.676 197.962 167.074 198.149 166.469 198.149H166.471ZM9.1913 78.4139L55.4964 123.561C56.1842 124.231 56.4982 125.197 56.3356 126.145L45.4039 189.893L102.641 159.795C103.491 159.348 104.507 159.348 105.357 159.795L162.594 189.893L151.662 126.145C151.499 125.197 151.813 124.231 152.501 123.561L198.806 78.4139L134.814 69.1138C133.863 68.976 133.041 68.3787 132.617 67.517L103.999 9.51739L75.381 67.517C74.9565 68.3787 74.1334 68.976 73.1838 69.1138L9.1913 78.4139Z" fill="var(--fill-0, #333333)"/>
<path id="Vector_4" d="M144.73 53.1534C143.425 52.206 143.137 50.3795 144.085 49.0757L156.271 32.2983C157.218 30.9933 159.045 30.7052 160.348 31.6526C161.653 32.6 161.941 34.4265 160.993 35.7303L148.807 52.5077C147.86 53.8127 146.033 54.1008 144.73 53.1534Z" fill="var(--fill-0, #333333)"/>
<path id="Vector_5" d="M59.1932 52.5077L47.0065 35.7303C46.0593 34.4253 46.3486 32.6 47.652 31.6526C48.9567 30.7052 50.7816 30.9945 51.7288 32.2983L63.9155 49.0757C64.8627 50.3807 64.5734 52.206 63.27 53.1534C61.9653 54.1008 60.1404 53.8115 59.1932 52.5077Z" fill="var(--fill-0, #333333)"/>
<path id="Vector_6" d="M12.2016 140.325C11.6517 138.809 12.4338 137.135 13.9483 136.584L33.4356 129.502C34.9514 128.952 36.6248 129.735 37.1759 131.249C37.7259 132.765 36.9438 134.439 35.4293 134.991L15.9419 142.072C14.4262 142.622 12.7528 141.84 12.2016 140.325Z" fill="var(--fill-0, #333333)"/>
<path id="Vector_7" d="M104.001 177.423H104C102.388 177.423 101.081 178.73 101.081 180.342V201.081C101.081 202.693 102.388 204 104 204H104.001C105.613 204 106.92 202.693 106.92 201.081V180.342C106.92 178.73 105.613 177.423 104.001 177.423Z" fill="var(--fill-0, #333333)"/>
<path id="Vector_8" d="M192.058 142.072L172.571 134.991C171.055 134.44 170.274 132.765 170.824 131.249C171.374 129.733 173.049 128.951 174.564 129.502L194.052 136.584C195.567 137.134 196.348 138.809 195.798 140.325C195.248 141.841 193.574 142.623 192.058 142.072Z" fill="var(--fill-0, #333333)"/>
</g>
<defs>
<clipPath id="clip0_238_180">
<rect width="208" height="204" fill="white"/>
</clipPath>
</defs>
</svg>
