<svg preserveAspectRatio="none" width="100%" height="100%" overflow="visible" style="display: block;" viewBox="0 0 23.9891 24" fill="none" xmlns="http://www.w3.org/2000/svg">
<path id="Vector" fill-rule="evenodd" clip-rule="evenodd" d="M1.68702 1.68706C0.0504242 3.32367 0.00146352 5.92788 0 11.0399C4.58111 11.0398 7.44133 9.07308 9.95022 7.34789C11.9102 6.00017 13.6558 4.79986 15.84 4.79986C19.0909 4.79986 21.9294 7.09843 23.4345 8.31725C23.6467 8.48911 23.8324 8.63952 23.9891 8.75897C23.9416 5.11426 23.6859 3.06012 22.3129 1.68706C20.6258 8.01086e-07 17.9105 5.58682e-07 12.4799 8.39257e-08L11.5199 0C6.08937 1.3563e-06 3.37408 1.14441e-06 1.68702 1.68706ZM10.8144 23.9999C11.0443 24 11.2795 24 11.52 24H12.4799C12.7204 24 12.9555 24 13.1855 23.9999H10.8144Z" fill="var(--fill-0, #0077FF)"/>
</svg>
