<svg preserveAspectRatio="none" width="100%" height="100%" overflow="visible" style="display: block;" viewBox="0 0 8.41167 8.94885" fill="none" xmlns="http://www.w3.org/2000/svg">
<path id="Vector" d="M6.77491 2.09682C5.19878 0.349327 2.87368 -0.316675 0.727599 0.139347H0.726961C0.60895 0.164554 0.49706 0.212758 0.397678 0.281208C0.298297 0.349657 0.21337 0.437011 0.147748 0.538281C0.0821258 0.639552 0.0370931 0.752756 0.0152207 0.871431C-0.00665173 0.990105 -0.00493584 1.11193 0.0202714 1.22994C0.0454787 1.34795 0.093684 1.45984 0.162133 1.55922C0.230583 1.6586 0.317936 1.74353 0.419207 1.80915C0.520478 1.87477 0.633682 1.9198 0.752356 1.94168C0.87103 1.96355 0.99285 1.96183 1.11086 1.93663C2.63753 1.6124 4.28961 2.08725 5.41099 3.32799C5.94237 3.91686 6.30933 4.63526 6.47498 5.41095C6.64062 6.18664 6.59912 6.99227 6.35463 7.74683L6.35495 7.74715C6.31766 7.86199 6.30341 7.98306 6.31299 8.10342C6.32258 8.22378 6.35582 8.34106 6.41081 8.44855C6.4658 8.55604 6.54146 8.65163 6.63345 8.72983C6.72545 8.80803 6.83197 8.86731 6.94691 8.90427C7.17861 8.97919 7.43056 8.9591 7.64745 8.84841C7.86434 8.73772 8.02844 8.54548 8.10372 8.3139L8.10404 8.31007C8.77674 6.2224 8.35168 3.84241 6.77491 2.09682Z" fill="var(--fill-0, #FF9933)"/>
</svg>
