<svg preserveAspectRatio="none" width="100%" height="100%" overflow="visible" style="display: block;" viewBox="0 0 46 46" fill="none" xmlns="http://www.w3.org/2000/svg">
<g id="auto_towing">
<mask id="mask0_238_126" style="mask-type:alpha" maskUnits="userSpaceOnUse" x="0" y="0" width="46" height="46">
<rect id="Bounding box" width="46" height="46" fill="var(--fill-0, #D9D9D9)"/>
</mask>
<g mask="url(#mask0_238_126)">
<path id="auto_towing_2" d="M1.91667 32.5833V24.9167H17.6333L5.75 15.525V21.0833H1.91667V9.58333H3.83333L24.9167 21.1792V7.66667H34.5L44.0833 19.1667V32.5833H39.2917C39.2917 34.1806 38.7326 35.5382 37.6146 36.6562C36.4965 37.7743 35.1389 38.3333 33.5417 38.3333C31.9444 38.3333 30.5868 37.7743 29.4688 36.6562C28.3507 35.5382 27.7917 34.1806 27.7917 32.5833H17.25C17.25 34.1806 16.691 35.5382 15.5729 36.6562C14.4549 37.7743 13.0972 38.3333 11.5 38.3333C9.90278 38.3333 8.54514 37.7743 7.42708 36.6562C6.30903 35.5382 5.75 34.1806 5.75 32.5833H1.91667ZM11.5 35.4583C12.3306 35.4583 13.0174 35.1868 13.5604 34.6437C14.1035 34.1007 14.375 33.4139 14.375 32.5833C14.375 31.7528 14.1035 31.066 13.5604 30.5229C13.0174 29.9799 12.3306 29.7083 11.5 29.7083C10.6694 29.7083 9.98264 29.9799 9.43958 30.5229C8.89653 31.066 8.625 31.7528 8.625 32.5833C8.625 33.4139 8.89653 34.1007 9.43958 34.6437C9.98264 35.1868 10.6694 35.4583 11.5 35.4583ZM33.5417 35.4583C34.3722 35.4583 35.059 35.1868 35.6021 34.6437C36.1451 34.1007 36.4167 33.4139 36.4167 32.5833C36.4167 31.7528 36.1451 31.066 35.6021 30.5229C35.059 29.9799 34.3722 29.7083 33.5417 29.7083C32.7111 29.7083 32.0243 29.9799 31.4813 30.5229C30.9382 31.066 30.6667 31.7528 30.6667 32.5833C30.6667 33.4139 30.9382 34.1007 31.4813 34.6437C32.0243 35.1868 32.7111 35.4583 33.5417 35.4583ZM28.75 19.1667H39.1L32.6792 11.5H28.75V19.1667Z" fill="var(--fill-0, #0D0D0E)"/>
</g>
</g>
</svg>
