<svg preserveAspectRatio="none" width="100%" height="100%" overflow="visible" style="display: block;" viewBox="0 0 4.2934 4.48092" fill="none" xmlns="http://www.w3.org/2000/svg">
<path id="Vector" d="M3.99897 4.48092H3.99201C3.91423 4.4791 3.84037 4.44647 3.78664 4.3902C3.73292 4.33393 3.70374 4.25863 3.70551 4.18086C3.72814 3.17796 3.44165 2.36582 2.82968 1.69815C2.2177 1.03048 1.38399 0.668451 0.272479 0.586994C0.194742 0.581316 0.122445 0.54499 0.0714918 0.486007C0.0205386 0.427024 -0.00489648 0.350216 0.00078144 0.272479C0.00645936 0.194742 0.0427855 0.122446 0.101769 0.0714923C0.160752 0.0205391 0.23756 -0.00489649 0.315297 0.000781428C1.56605 0.0923337 2.55746 0.529905 3.26237 1.30096C3.96729 2.07202 4.31784 3.04742 4.29208 4.19304C4.29053 4.26981 4.25899 4.34292 4.20421 4.39673C4.14943 4.45054 4.07576 4.48076 3.99897 4.48092Z" fill="var(--fill-0, #7360F2)"/>
</svg>
