<svg preserveAspectRatio="none" width="100%" height="100%" overflow="visible" style="display: block;" viewBox="0 0 7.5014 10.4555" fill="none" xmlns="http://www.w3.org/2000/svg">
<path id="Vector" d="M6.3764 0H0.480654C0.35335 0 0.23126 0.0505711 0.141242 0.140589C0.051225 0.230606 0.000654697 0.352696 0.000654697 0.48V6.5625C-0.0155957 7.44281 0.271102 8.30197 0.812737 8.99612C1.35437 9.69027 2.11806 10.1772 2.9759 10.3755C3.52227 10.4901 4.08732 10.4815 4.62993 10.3502C5.17253 10.2189 5.67902 9.96825 6.11253 9.6165C6.54604 9.26475 6.89565 8.82076 7.13591 8.31684C7.37617 7.81292 7.50103 7.26176 7.5014 6.7035V1.125C7.5014 0.826632 7.38287 0.540483 7.17189 0.329505C6.96092 0.118526 6.67477 0 6.3764 0Z" fill="var(--fill-0, #5059C9)"/>
</svg>
