<svg preserveAspectRatio="none" width="100%" height="100%" overflow="visible" style="display: block;" viewBox="0 0 20.9377 16.6975" fill="none" xmlns="http://www.w3.org/2000/svg">
<path id="Vector" d="M10.0819 15.2752C6.1089 15.6671 2.67932 13.8717 2.42084 11.2629C2.16299 8.65479 5.17579 6.22246 9.14819 5.82963C13.1215 5.43647 16.5514 7.23247 16.8093 9.84C17.0668 12.4491 14.0553 14.8821 10.0819 15.2752ZM18.029 6.61593C17.691 6.51509 17.4593 6.44584 17.6361 6.00195C18.0194 5.03757 18.059 4.20595 17.6435 3.61239C16.8645 2.49962 14.7328 2.55929 12.2893 3.58271C12.2893 3.58111 11.5221 3.91842 11.7181 3.30986C12.094 2.10136 12.0372 1.08943 11.4522 0.505122C10.1269 -0.821457 6.60162 0.555223 3.57828 3.57728C1.31445 5.84143 0 8.24089 0 10.3158C0 14.2847 5.08963 16.6975 10.0688 16.6975C16.5958 16.6975 20.9377 12.9051 20.9377 9.89457C20.9377 8.07527 19.4056 7.04292 18.029 6.61593Z" fill="var(--fill-0, #E6162D)"/>
</svg>
