<svg preserveAspectRatio="none" width="100%" height="100%" overflow="visible" style="display: block;" viewBox="0 0 24 24" fill="none" xmlns="http://www.w3.org/2000/svg">
<path id="Vector" fill-rule="evenodd" clip-rule="evenodd" d="M23.528 20.8C23.296 21.392 22.76 22.224 21.992 22.816C21.552 23.152 21.024 23.48 20.304 23.696C19.536 23.928 18.584 24 17.4 24H6.6C5.416 24 4.472 23.92 3.696 23.696C2.976 23.48 2.448 23.16 2.008 22.816C1.248 22.232 0.704 21.392 0.472 20.8C0.00799999 19.608 0 18.256 0 17.4V6.6C0 5.744 0.00799999 4.392 0.472 3.2C0.704 2.608 1.24 1.776 2.008 1.184C2.448 0.848 2.976 0.52 3.696 0.304C4.472 0.08 5.416 0 6.6 0H17.4C18.584 0 19.528 0.08 20.304 0.304C21.024 0.52 21.552 0.84 21.992 1.184C22.752 1.768 23.296 2.608 23.528 3.2C24 4.392 24 5.752 24 6.6V17.4C24 18.256 23.992 19.608 23.528 20.8Z" fill="url(#paint0_linear_208_324)"/>
<defs>
<linearGradient id="paint0_linear_208_324" x1="12" y1="0" x2="12" y2="24" gradientUnits="userSpaceOnUse">
<stop stop-color="#F452FF"/>
<stop offset="1" stop-color="#832BC1"/>
</linearGradient>
</defs>
</svg>
