<svg preserveAspectRatio="none" width="100%" height="100%" overflow="visible" style="display: block;" viewBox="0 0 18.6898 20.8155" fill="none" xmlns="http://www.w3.org/2000/svg">
<path id="Vector" d="M16.6519 1.80178C16.1645 1.35899 14.0609 0.0372254 9.67163 0.0180795C9.67163 0.0180795 4.47438 -0.323414 1.9513 1.96191C0.546687 3.34842 0.0736087 5.41026 0.0210445 7.92673C-0.0315198 10.4432 -0.299563 15.2492 4.30277 16.5278C4.30277 16.5278 4.28501 20.0962 4.28258 20.4099C4.28258 20.6292 4.31739 20.7792 4.44271 20.8102C4.53321 20.8321 4.66793 20.7855 4.78315 20.6709C5.51871 19.9319 7.8747 17.0896 7.8747 17.0896C11.0362 17.296 13.5509 16.6719 13.8214 16.5835C14.4578 16.3795 17.9054 16.0818 18.4906 11.3678C19.0973 6.50611 18.2713 3.18829 16.6519 1.80178Z" fill="var(--fill-0, white)"/>
</svg>
