<svg preserveAspectRatio="none" width="100%" height="100%" overflow="visible" style="display: block;" viewBox="0 0 4.17887 8.04" fill="none" xmlns="http://www.w3.org/2000/svg">
<path id="Vector" d="M4.14442 1.312C4.11242 1.024 4.01642 0.816 3.82442 0.624C3.46442 0.248 2.83242 0 2.08842 0C1.34442 0 0.71242 0.24 0.35242 0.624C0.16842 0.824 0.0644199 1.024 0.0324199 1.312C-0.0315801 1.872 0.00841989 2.352 0.0724199 3.128C0.13642 3.864 0.25642 4.848 0.40842 5.84C0.52042 6.552 0.60842 6.936 0.68842 7.208C0.82442 7.656 1.31242 8.04 2.08842 8.04C2.86442 8.04 3.36042 7.648 3.48842 7.208C3.56842 6.936 3.65642 6.552 3.76842 5.84C3.92042 4.84 4.04042 3.864 4.10442 3.128C4.17642 2.352 4.20842 1.872 4.14442 1.312Z" fill="var(--fill-0, white)"/>
</svg>
