<svg preserveAspectRatio="none" width="100%" height="100%" overflow="visible" style="display: block;" viewBox="0 0 6.00008 11.25" fill="none" xmlns="http://www.w3.org/2000/svg">
<path id="Vector" opacity="0.2" d="M6 1.00276e-06V10.2525C6.00109 10.3261 5.99098 10.3994 5.97 10.47C5.92204 10.6909 5.7999 10.8888 5.62389 11.0307C5.44787 11.1726 5.22859 11.25 5.0025 11.25H0.81C0.665678 11.0101 0.540297 10.7594 0.435001 10.5C0.336835 10.2554 0.254171 10.0049 0.187501 9.75C0.0638542 9.25956 0.000883276 8.75579 1.00276e-06 8.25V1.125C-0.000196449 0.977208 0.0287678 0.830829 0.0852344 0.694249C0.141701 0.557669 0.22456 0.433571 0.329066 0.329066C0.433571 0.224561 0.557668 0.141701 0.694249 0.0852345C0.830829 0.0287678 0.977208 -0.000196449 1.125 1.00276e-06H6Z" fill="var(--fill-0, black)"/>
</svg>
