<svg preserveAspectRatio="none" width="100%" height="100%" overflow="visible" style="display: block;" viewBox="0 0 11.3044 10.3422" fill="none" xmlns="http://www.w3.org/2000/svg">
<path id="Vector" d="M5.43243 0.00455912C2.44043 0.116559 0.0404294 2.58856 0.000429385 5.58056C-0.0235706 7.54856 0.96043 9.29256 2.47243 10.3246C2.54443 10.3726 2.64843 10.3166 2.64843 10.2286C2.62443 9.88456 2.62443 9.58056 2.64043 9.26056C2.64843 9.15656 2.60843 9.06056 2.52843 8.98856C1.60843 8.12456 1.04843 6.89256 1.08043 5.53256C1.14443 3.13256 3.07243 1.18056 5.47243 1.08456C8.08043 0.980559 10.2244 3.07656 10.2244 5.65256C10.2244 6.96456 9.66443 8.14856 8.77643 8.98856C8.70443 9.06056 8.66443 9.15656 8.66443 9.26056C8.68043 9.57256 8.67243 9.87656 8.65643 10.2206C8.64843 10.3086 8.75243 10.3726 8.83243 10.3166C10.3204 9.30056 11.3044 7.58056 11.3044 5.64456C11.3124 2.46056 8.64843 -0.123441 5.43243 0.00455912Z" fill="var(--fill-0, white)"/>
</svg>
