<svg preserveAspectRatio="none" width="100%" height="100%" overflow="visible" style="display: block;" viewBox="0 0 6.75 10.5001" fill="none" xmlns="http://www.w3.org/2000/svg">
<path id="Vector" opacity="0.1" d="M6.75 1.00276e-06V9.5025C6.75 9.72859 6.67262 9.94787 6.53072 10.1239C6.38882 10.2999 6.19094 10.422 5.97 10.47C5.89944 10.491 5.8261 10.5011 5.7525 10.5H0.435001C0.336835 10.2554 0.254171 10.0049 0.187501 9.75C0.0638542 9.25956 0.000883276 8.75579 1.00276e-06 8.25V1.125C-0.000196449 0.977208 0.0287678 0.830829 0.0852344 0.694249C0.141701 0.557669 0.22456 0.433571 0.329066 0.329066C0.433571 0.224561 0.557668 0.141701 0.694249 0.0852345C0.830829 0.0287678 0.977208 -0.000196449 1.125 1.00276e-06H6.75Z" fill="var(--fill-0, black)"/>
</svg>
