<svg preserveAspectRatio="none" width="100%" height="100%" overflow="visible" style="display: block;" viewBox="0 0 24 23.9121" fill="none" xmlns="http://www.w3.org/2000/svg">
<path id="path" d="M24 11.9121C24 18.5395 18.6274 23.9121 12 23.9121C5.37259 23.9121 0 18.5395 0 11.9121C0 6.28435 3.87432 1.56226 9.10108 0.265488V8.2451H6.62659V11.9121H9.10108V13.4922C9.10108 17.5766 10.9495 19.4697 14.9594 19.4697C15.7196 19.4697 17.0314 19.3207 17.568 19.1716V15.8474C17.2848 15.8772 16.7929 15.8922 16.1817 15.8922C14.214 15.8922 13.4538 15.1468 13.4538 13.209V11.9121H17.3734L16.7001 8.2451H13.4538V0C19.3955 0.717647 24 5.77684 24 11.9121Z" fill="var(--fill-0, #0866FF)"/>
</svg>
