<svg preserveAspectRatio="none" width="100%" height="100%" overflow="visible" style="display: block;" viewBox="0 0 8.66468 12.0755" fill="none" xmlns="http://www.w3.org/2000/svg">
<path id="Vector" d="M1.85992 0C1.65145 6.29343e-08 1.47602 0.0731611 1.38791 0.216337C1.29665 0.364232 1.31081 0.554608 1.40757 0.747345L3.74794 4.79874C3.75188 4.80661 3.75188 4.81133 3.74794 4.81841L0.0702222 11.3085C-0.0257526 11.4997 -0.0210325 11.6916 0.0702222 11.8395C0.15833 11.9819 0.314095 12.0755 0.522565 12.0755H3.98395C4.50158 12.0755 4.75096 11.7262 4.92796 11.4068C4.92796 11.4068 8.52465 5.04576 8.66468 4.79874C8.65052 4.77593 6.28498 0.64901 6.28498 0.64901C6.1127 0.342205 5.85231 0 5.3213 0H1.85992Z" fill="var(--fill-0, #005A5F)"/>
</svg>
