<svg preserveAspectRatio="none" width="100%" height="100%" overflow="visible" style="display: block;" viewBox="0 0 24 24" fill="none" xmlns="http://www.w3.org/2000/svg">
<path id="container-base" d="M24 12C24 13.2833 23.8968 14.5415 23.6998 15.7684C23.0474 19.8301 19.8301 23.0475 15.7684 23.6998C14.5415 23.8969 13.2832 24 12 24C10.7168 24 9.45855 23.8969 8.23161 23.6998C4.16992 23.0475 0.952577 19.8301 0.300214 15.7684C0.103157 14.5415 0 13.2833 0 12C0 10.7168 0.103157 9.45848 0.300214 8.23158C0.952586 4.16989 4.16993 0.952561 8.23161 0.300215C9.45855 0.103157 10.7168 0 12 0C13.2832 0 14.5415 0.103157 15.7684 0.300215C19.8301 0.952561 23.0474 4.16989 23.6998 8.23157C23.8969 9.45848 24 10.7168 24 12Z" fill="var(--fill-0, #0B5CFF)"/>
</svg>
