<svg preserveAspectRatio="none" width="100%" height="100%" overflow="visible" style="display: block;" viewBox="0 0 4.39037 4.59507" fill="none" xmlns="http://www.w3.org/2000/svg">
<path id="Vector" d="M3.59394 1.02008C2.82678 0.16899 1.69422 -0.154278 0.648471 0.0681481C0.544414 0.0871848 0.445233 0.126906 0.356802 0.18496C0.26837 0.243014 0.192487 0.318221 0.133642 0.406127C0.0747969 0.494034 0.0341875 0.592854 0.014218 0.696736C-0.00575143 0.800618 -0.00467529 0.907451 0.0173831 1.01091C0.0394415 1.11437 0.0820339 1.21235 0.142638 1.29905C0.203242 1.38576 0.280627 1.45942 0.370209 1.51568C0.459792 1.57194 0.559752 1.60966 0.664172 1.62659C0.768592 1.64353 0.875347 1.63934 0.97812 1.61428V1.61492C1.23794 1.55936 1.50779 1.57304 1.76066 1.65458C2.01353 1.73613 2.24053 1.88268 2.41894 2.07956C2.59704 2.27693 2.71993 2.51777 2.77523 2.77779C2.83053 3.03782 2.81628 3.30783 2.73391 3.56059H2.73455C2.67002 3.7602 2.68739 3.97727 2.78283 4.16409C2.87827 4.35091 3.04399 4.49219 3.24355 4.55688C3.44325 4.62127 3.66034 4.60372 3.84711 4.5081C4.03387 4.41247 4.17502 4.24659 4.23952 4.04693C4.56821 3.02989 4.3627 1.87085 3.59394 1.02008Z" fill="var(--fill-0, #FF9933)"/>
</svg>
