<svg preserveAspectRatio="none" width="100%" height="100%" overflow="visible" style="display: block;" viewBox="0 0 23.9986 23.9986" fill="none" xmlns="http://www.w3.org/2000/svg">
<g id="Vector">
<path d="M23.9986 12.1279C18.6848 12.2908 16.2592 12.428 14.3136 14.3136C12.428 16.2592 12.2993 18.6848 12.1279 23.9986C18.6533 23.9301 23.9301 18.6533 23.9986 12.1279Z" fill="var(--fill-0, black)"/>
<path d="M11.8707 23.9986C11.7079 18.6848 11.5707 16.2592 9.68504 14.3136C7.73941 12.428 5.31382 12.2993 2.14299e-08 12.1279C0.0685113 18.6533 5.34536 23.9301 11.8707 23.9986Z" fill="var(--fill-0, black)"/>
<path d="M23.9986 11.8707C23.9301 5.34536 18.6533 0.0685107 12.1279 0C12.2908 5.31382 12.428 7.73941 14.3136 9.68504C16.2592 11.5707 18.6848 11.6993 23.9986 11.8707Z" fill="var(--fill-0, black)"/>
<path d="M11.8707 1.39894e-09C5.34536 0.0685108 0.0685102 5.34536 0 11.8707C5.31382 11.7079 7.73941 11.5707 9.68504 9.68504C11.5707 7.73941 11.6993 5.31382 11.8707 1.39894e-09Z" fill="var(--fill-0, black)"/>
</g>
</svg>
