<svg preserveAspectRatio="none" width="100%" height="100%" overflow="visible" style="display: block;" viewBox="0 0 6.35193 6.60569" fill="none" xmlns="http://www.w3.org/2000/svg">
<path id="Vector" d="M6.05812 6.60499C5.98068 6.6049 5.9064 6.57424 5.85145 6.51968C5.79649 6.46512 5.7653 6.39106 5.76466 6.31363C5.75109 4.51983 5.23449 3.14968 4.1853 2.12555C3.14863 1.11603 1.83905 0.59805 0.292412 0.586911C0.253875 0.586774 0.215743 0.579048 0.180192 0.564174C0.144641 0.549299 0.112367 0.527568 0.0852143 0.500222C0.0303767 0.444992 -0.000275111 0.370241 1.86085e-06 0.292412C0.000278832 0.214583 0.0314616 0.140052 0.0866909 0.0852142C0.14192 0.0303767 0.216671 -0.000275111 0.2945 1.86085e-06H0.296937C1.99988 0.0125337 3.44592 0.586215 4.59502 1.70573C5.74412 2.82524 6.3366 4.3771 6.35192 6.31015C6.35248 6.38792 6.32214 6.46273 6.26757 6.51814C6.213 6.57356 6.13867 6.60504 6.0609 6.60569L6.05812 6.60499Z" fill="var(--fill-0, #7360F2)"/>
</svg>
