<svg preserveAspectRatio="none" width="100%" height="100%" overflow="visible" style="display: block;" viewBox="0 0 24 16.0504" fill="none" xmlns="http://www.w3.org/2000/svg">
<path id="Vector" fill-rule="evenodd" clip-rule="evenodd" d="M21.4236 6.01972C21.4236 6.01972 19.0244 6.60712 16.9918 6.01972V6.01821C21.0119 5.23702 23.3285 2.96855 24 0H19.9829C16.5312 0 14.6757 0.185147 13.2278 1.95246C12.583 1.39355 11.8519 0.940566 11.0622 0.612932C10.0917 0.208813 9.0506 0.00149536 8.0005 0.00149536L7.99899 0.00299762C4.76454 0.00299762 1.84708 1.95749 0.60918 4.95608C-0.628715 7.95317 0.0548317 11.4055 2.34283 13.6995C4.59756 15.9616 7.97127 16.6612 10.9299 15.4921C11.0185 15.4572 11.1065 15.4206 11.1937 15.3825C13.0893 14.5554 14.5519 13.0445 15.3427 11.2097C18.5226 10.9762 20.7285 9.06731 21.4236 6.01972ZM10.3027 8.71029L10.2767 8.79347C10.2594 8.84541 10.2403 8.89684 10.2194 8.94769C10.0988 9.23953 9.9222 9.50492 9.6996 9.72889C9.47675 9.95234 9.21189 10.1295 8.92028 10.2502C8.62868 10.3708 8.31608 10.4326 8.0005 10.432L8.002 10.4335C7.5268 10.4332 7.06238 10.2919 6.66761 10.0274C6.27284 9.76289 5.96552 9.3871 5.7846 8.94769C5.41203 8.04782 5.61785 7.01273 6.3044 6.32468C6.99095 5.63662 8.02303 5.43081 8.9199 5.80338C9.81678 6.17595 10.4012 7.05329 10.4012 8.02678C10.4012 8.25842 10.368 8.48844 10.3027 8.71029Z" fill="var(--fill-0, black)"/>
</svg>
