<svg preserveAspectRatio="none" width="100%" height="100%" overflow="visible" style="display: block;" viewBox="0 0 11.6695 11.6705" fill="none" xmlns="http://www.w3.org/2000/svg">
<path id="Vector" d="M7.01872 8.47379C7.01872 8.47379 7.43122 8.5086 7.65332 8.23498L8.08636 7.6902C8.29523 7.42006 8.79929 7.24775 9.2929 7.52276C9.66281 7.73372 10.0219 7.96306 10.3689 8.20992C10.6965 8.45081 11.3673 9.01057 11.3694 9.01057C11.6889 9.28035 11.7627 9.6765 11.5452 10.0942C11.5452 10.0967 11.5434 10.1008 11.5434 10.1029C11.3038 10.5183 10.9996 10.8929 10.6422 11.2127C10.638 11.2148 10.638 11.2169 10.6342 11.219C10.3236 11.4784 10.0186 11.6259 9.71899 11.6614C9.67487 11.6691 9.63004 11.6719 9.58531 11.6698C9.4532 11.671 9.32175 11.6508 9.19613 11.6099L9.18638 11.5956C8.72479 11.4654 7.95408 11.1396 6.67061 10.4315C5.92789 10.0266 5.22079 9.55954 4.5569 9.03528C4.22414 8.77266 3.90672 8.49116 3.60622 8.19217L3.57419 8.16014L3.54217 8.12811L3.51014 8.09609C3.49935 8.08565 3.48891 8.07485 3.47812 8.06406C3.17912 7.76356 2.89762 7.44614 2.635 7.11338C2.11082 6.44956 1.64373 5.74259 1.23874 5.00002C0.53069 3.7162 0.204861 2.94619 0.0746686 2.4839L0.0603961 2.47415C0.0195862 2.34851 -0.000518053 2.21707 0.000870026 2.08497C-0.00156677 2.04025 0.00111936 1.9954 0.00887635 1.9513C0.0462399 1.65216 0.193953 1.34687 0.452017 1.03543C0.454106 1.0316 0.456195 1.0316 0.458283 1.02742C0.77795 0.670022 1.15258 0.3659 1.56805 0.126517C1.57014 0.126517 1.57432 0.124429 1.57675 0.124429C1.99448 -0.0931384 2.39063 -0.0193396 2.66006 0.298482C2.66215 0.300571 3.22086 0.971374 3.46071 1.29894C3.7076 1.64626 3.93694 2.00573 4.14787 2.37599C4.42288 2.86926 4.25057 3.37436 3.98043 3.58253L3.43565 4.01557C3.16064 4.23767 3.19684 4.65017 3.19684 4.65017C3.19684 4.65017 4.00376 7.70412 7.01872 8.47379Z" fill="var(--fill-0, #7360F2)"/>
</svg>
