<svg preserveAspectRatio="none" width="100%" height="100%" overflow="visible" style="display: block;" viewBox="0 0 24.0006 24" fill="none" xmlns="http://www.w3.org/2000/svg">
<path id="Vector" fill-rule="evenodd" clip-rule="evenodd" d="M24.0006 7.50751C24.0006 7.22083 24.0006 6.93416 23.9992 6.64749C23.9979 6.40615 23.9952 6.16481 23.9886 5.92347C23.9746 5.39746 23.9432 4.86745 23.8499 4.34743C23.7552 3.81942 23.5999 3.32808 23.3559 2.84807C23.1159 2.37672 22.8025 1.94605 22.4285 1.57204C22.0545 1.19803 21.6232 0.884687 21.1518 0.644682C20.6725 0.400676 20.1811 0.246006 19.6538 0.15067C19.1338 0.0573347 18.6031 0.0260006 18.0771 0.0120003C17.8357 0.00533346 17.5944 0.00266673 17.3531 0.00133336C17.0664 0 16.7797 0 16.4931 0H7.50751C7.22083 0 6.93416 0 6.64749 0.00133336C6.40615 0.00266673 6.16481 0.00533346 5.92347 0.0120003C5.39746 0.0266673 4.86678 0.0573347 4.34677 0.151337C3.81876 0.246006 3.32808 0.401343 2.84873 0.645348C2.37739 0.885354 1.94605 1.19869 1.57204 1.5727C1.19803 1.94671 0.884687 2.37739 0.644682 2.84873C0.400676 3.32874 0.245339 3.82009 0.15067 4.3481C0.0573347 4.86811 0.0260006 5.39879 0.0120003 5.92414C0.00533346 6.16548 0.00266673 6.40682 0.00133336 6.64815C0 6.93416 0 7.22083 0 7.50751V16.4924C0 16.7791 0 17.0657 0.00133336 17.3524C0.00266673 17.5937 0.00533346 17.8351 0.0120003 18.0764C0.0260006 18.6024 0.0573347 19.1324 0.15067 19.6525C0.245339 20.1805 0.400676 20.6718 0.644682 21.1518C0.884687 21.6232 1.19803 22.0538 1.57204 22.4279C1.94605 22.8019 2.37739 23.1152 2.84873 23.3552C3.32808 23.5992 3.81942 23.7539 4.34677 23.8492C4.86678 23.9426 5.39746 23.9739 5.92347 23.9879C6.16481 23.9946 6.40615 23.9972 6.64749 23.9986C6.93416 24.0006 7.22083 23.9999 7.50751 23.9999H16.4924C16.7791 23.9999 17.0657 23.9999 17.3524 23.9986C17.5937 23.9972 17.8351 23.9946 18.0764 23.9879C18.6024 23.9739 19.1331 23.9426 19.6531 23.8492C20.1811 23.7546 20.6718 23.5992 21.1512 23.3552C21.6225 23.1152 22.0538 22.8019 22.4279 22.4279C22.8019 22.0538 23.1152 21.6232 23.3552 21.1518C23.5992 20.6718 23.7546 20.1805 23.8492 19.6525C23.9426 19.1324 23.9739 18.6018 23.9879 18.0764C23.9946 17.8351 23.9972 17.5937 23.9986 17.3524C24.0006 17.0657 23.9999 16.7791 23.9999 16.4924V7.50751H24.0006Z" fill="url(#paint0_linear_208_308)"/>
<defs>
<linearGradient id="paint0_linear_208_308" x1="12.0003" y1="23.9075" x2="12.0003" y2="0.517251" gradientUnits="userSpaceOnUse">
<stop stop-color="#FA233B"/>
<stop offset="1" stop-color="#FB5C74"/>
</linearGradient>
</defs>
</svg>
