<svg preserveAspectRatio="none" width="100%" height="100%" overflow="visible" style="display: block;" viewBox="0 0 12.6528 24" fill="none" xmlns="http://www.w3.org/2000/svg">
<path id="Vector" d="M8.62907 0C8.11222 0 7.88802 0.325695 7.70236 0.659247C7.70236 0.659247 0.245444 13.8833 0 14.3176C0.0125869 14.3412 4.9183 23.3408 4.9183 23.3408C5.08979 23.6476 5.35491 24 5.88513 24H9.34259C9.55106 24 9.71389 23.9213 9.802 23.7789C9.89404 23.631 9.8917 23.4359 9.79493 23.244L4.91517 14.3286C4.91045 14.3215 4.91045 14.3128 4.91517 14.3058L12.579 0.755219C12.675 0.564056 12.6773 0.368957 12.5861 0.221061C12.498 0.0786725 12.3343 0 12.1259 0H8.62907Z" fill="var(--fill-0, #D4D600)"/>
</svg>
