<svg preserveAspectRatio="none" width="100%" height="100%" overflow="visible" style="display: block;" viewBox="0 0 13.7143 8.57144" fill="none" xmlns="http://www.w3.org/2000/svg">
<path id="icon_meetings_fill" d="M9.42857 7.28572C9.42857 7.99576 8.85294 8.57144 8.14286 8.57144H2.57143C1.15126 8.57144 0 7.42017 0 6.00001V1.28572C0 0.575684 0.575631 0 1.28571 0H6.85714C8.27731 0 9.42857 1.15126 9.42857 2.57143V7.28572ZM12.6857 0.771352L10.8 2.18564C10.4762 2.42846 10.2857 2.80954 10.2857 3.21424L10.2857 5.3571C10.2857 5.76177 10.4763 6.14283 10.8 6.38564L12.6857 7.79993C13.1095 8.11778 13.7143 7.81539 13.7143 7.28564V1.28565C13.7143 0.755906 13.1095 0.453506 12.6857 0.771352Z" fill="var(--fill-0, white)"/>
</svg>
