<svg width="24" height="24" viewBox="0 0 24 24" fill="none" xmlns="http://www.w3.org/2000/svg">
  <path d="M18.3952 7.02212C17.6005 7.02368 16.9543 6.3802 16.9528 5.58548C16.9512 4.79076 17.5947 4.14457 18.3898 4.14302C19.1848 4.14146 19.831 4.78531 19.8326 5.58004C19.8338 6.37476 19.1903 7.02057 18.3952 7.02212Z" fill="currentColor" />
  <path d="M12.0115 18.161C8.60909 18.1676 5.8451 15.4149 5.8385 12.0117C5.83188 8.60923 8.58536 5.84481 11.9878 5.8382C15.3909 5.83159 18.1553 8.5859 18.1619 11.9879C18.1685 15.3912 15.4143 18.1544 12.0115 18.161ZM11.992 8.00035C9.78365 8.00424 7.99594 9.79858 7.99983 12.0074C8.0041 14.2166 9.79882 16.0039 12.0072 15.9996C14.2164 15.9954 16.0041 14.2014 15.9998 11.9922C15.9955 9.78302 14.2008 7.99608 11.992 8.00035Z" fill="currentColor" fill-rule="evenodd" clip-rule="evenodd" />
  <path d="M4.1192 0.646479C4.88126 0.347876 5.75333 0.143362 7.03015 0.0830982C8.31011 0.0216726 8.71872 0.00767102 11.9769 0.00145262C15.2358 -0.00476578 15.6444 0.00766862 16.9244 0.0644334C18.2016 0.119643 19.0741 0.321049 19.8377 0.616544C20.6277 0.920974 21.298 1.33078 21.966 1.99603C22.6339 2.66205 23.0453 3.33002 23.3536 4.1189C23.6518 4.88174 23.8563 5.75306 23.917 7.03068C23.9776 8.31023 23.9924 8.71847 23.9986 11.9771C24.0048 15.2353 23.9916 15.6443 23.9356 16.925C23.88 18.2014 23.679 19.0743 23.3835 19.8375C23.0783 20.6276 22.6693 21.2979 22.004 21.9659C21.3388 22.6342 20.6701 23.0452 19.8812 23.3539C19.1184 23.6517 18.2471 23.8562 16.9702 23.9173C15.6903 23.9779 15.2817 23.9923 12.0224 23.9985C8.76459 24.0048 8.35598 23.9923 7.07605 23.9359C5.79882 23.88 4.92597 23.6789 4.16275 23.3838C3.37271 23.0782 2.70242 22.6696 2.03446 22.004C1.36611 21.3383 0.954386 20.67 0.646458 19.8811C0.347858 19.1186 0.144107 18.2469 0.0830727 16.9705C0.0220359 15.6901 0.00765506 15.2811 0.00143906 12.0229C-0.00480094 8.76435 0.00803667 8.35611 0.0640167 7.07616C0.1204 5.79855 0.320637 4.92606 0.61613 4.16206C0.921328 3.37239 1.33035 2.70248 1.99637 2.03413C2.6616 1.36616 3.33033 0.954017 4.1192 0.646479Z" fill="currentColor" fill-rule="evenodd" clip-rule="evenodd" />
</svg>
