<svg width="226" height="201" viewBox="0 0 226 201" fill="none" xmlns="http://www.w3.org/2000/svg">
<path d="M113 18.5L122.5 48.5H154L128.5 67.5L138 97.5L113 78.5L88 97.5L97.5 67.5L72 48.5H103.5L113 18.5Z" fill="#FCFCFC"/>
<path d="M113 0C50.5888 0 0 50.5888 0 113C0 175.411 50.5888 226 113 226C175.411 226 226 175.411 226 113C226 50.5888 175.411 0 113 0ZM113 207.167C61.0267 207.167 18.8333 164.973 18.8333 113C18.8333 61.0267 61.0267 18.8333 113 18.8333C164.973 18.8333 207.167 61.0267 207.167 113C207.167 164.973 164.973 207.167 113 207.167Z" fill="#FCFCFC"/>
</svg>